<?xml version="1.0" encoding="UTF-8"?>
<svg id="b" data-name="Camada 2" xmlns="http://www.w3.org/2000/svg" width="1336.26" height="194.654" viewBox="0 0 1336.26 194.654">
  <g id="c" data-name="Camada 1">
    <g>
      <path d="M3.945,191.497c-2.367,0-3.945-1.052-3.945-3.156,0-6.313,17.887-7.628,17.887-25.778V34.985C17.887,16.045,0,14.73,0,8.417c0-2.104,1.578-3.157,3.945-3.157,4.209,0,13.941,1.052,23.411,1.052h2.104c9.47,0,19.203-1.052,23.411-1.052,2.368,0,3.946,1.052,3.946,3.157,0,6.313-17.887,7.628-17.887,25.778v69.97l52.346-69.181c11.574-14.994-14.205-20.254-14.205-26.567,0-2.104,1.315-3.157,3.156-3.156,2.894,0,9.207.789,15.783,1.052,15.256-.263,30.25-1.052,36.827-1.053,4.472,0,7.365,1.052,7.365,2.894,0,5.787-23.148,10.259-33.144,23.148l-34.722,45.77,50.768,84.701c9.996,16.309,30.513,20.254,30.513,26.567,0,2.104-2.63,3.156-6.576,3.156-7.365,0-23.674-1.052-39.457-1.052-7.628,0-14.994,1.052-18.413,1.052-1.841,0-3.156-1.052-3.156-3.156,0-6.313,23.411-10.259,14.204-25.778l-40.509-68.918-20.781,27.356v40.772c0,18.939,17.887,20.254,17.887,26.567,0,2.104-1.578,3.156-3.946,3.156-4.208,0-13.941-1.052-23.411-1.052h-2.104c-9.47,0-19.202,1.052-23.411,1.052Z"/>
      <path d="M149.671,124.684c0-50.505,29.725-69.97,58.396-69.97,26.831,0,45.507,17.361,45.507,40.246,0,21.044-12.889,30.513-41.561,30.513h-41.298c.789,39.721,18.413,58.134,41.298,58.134,17.624,0,29.724-7.892,36.3-16.572,1.315-1.578,2.63-2.367,3.683-1.841,1.052.525.526,2.104-.526,3.945-12.101,20.255-29.198,25.516-43.403,25.516-30.25,0-58.396-21.57-58.396-69.971ZM207.542,118.896c18.413,0,24.989-8.68,24.989-23.411,0-18.414-10.259-30.777-25.252-30.777-20.255,0-35.774,13.942-36.563,54.188h36.827Z"/>
      <path d="M272.775,169.665v-81.282c0-20.781-9.207-19.202-9.207-23.411,0-2.104,2.894-2.894,7.892-3.683,9.732-1.578,13.678-6.576,17.098-6.576,1.841,0,2.631.789,2.631,4.209v21.57h.526c2.367-7.892,12.363-25.779,31.303-25.779,16.309,0,24.726,9.207,24.726,27.883v87.069c0,13.415,12.626,12.362,12.626,18.676,0,2.104-1.315,3.156-3.42,3.156-4.735,0-9.207-1.052-18.413-1.052s-13.679,1.052-18.413,1.052c-2.104,0-3.42-1.052-3.42-3.156,0-6.313,12.626-5.261,12.626-18.676v-85.49c0-15.257-6.05-18.676-13.679-18.676-10.785,0-19.991,12.1-24.463,27.883v76.284c0,13.415,12.626,12.362,12.626,18.676,0,2.104-1.315,3.156-3.419,3.156-4.735,0-9.207-1.052-18.414-1.052s-13.678,1.052-18.413,1.052c-2.104,0-3.419-1.052-3.419-3.156,0-6.313,12.626-5.261,12.626-18.676Z"/>
      <path d="M379.571,169.665v-81.282c0-20.781-9.207-19.202-9.207-23.411,0-2.104,2.894-2.894,7.892-3.683,9.732-1.578,13.678-6.576,17.098-6.576,1.841,0,2.631.789,2.631,4.209v110.743c0,13.415,12.626,12.362,12.626,18.676,0,2.104-1.315,3.156-3.419,3.156-4.735,0-9.207-1.052-18.414-1.052s-13.678,1.052-18.413,1.052c-2.104,0-3.419-1.052-3.419-3.156,0-6.313,12.626-5.261,12.626-18.676ZM388.252,4.998c7.365,0,13.678,6.313,13.678,13.679s-6.313,13.678-13.678,13.678-13.678-6.313-13.678-13.678,6.313-13.679,13.678-13.679Z"/>
      <path d="M415.871,163.089c0-27.62,27.883-48.138,71.812-48.664v-16.572c0-22.622-6.839-35.248-21.833-35.248-22.622,0-19.203,29.987-32.881,29.987-5.787,0-9.47-4.209-9.47-9.47,0-15.783,17.098-28.409,39.983-28.409,29.198,0,42.614,16.572,42.614,48.138v58.133c0,25.516,9.207,23.147,9.207,27.883,0,1.841-2.63,1.578-7.892,2.367-9.732,1.578-13.678,3.42-17.098,3.42-1.841,0-2.631-.789-2.631-4.209v-14.73c-5.261,8.154-17.098,18.939-37.089,18.939-20.254,0-34.722-11.312-34.722-31.565ZM458.748,183.343c13.679,0,23.938-9.206,28.935-19.465v-42.351c-31.302.526-52.083,16.835-52.083,39.193,0,16.31,8.944,22.622,23.148,22.622Z"/>
      <path d="M580.536,129.682c0-59.711,38.405-129.682,107.586-129.682,1.842,0,2.894.526,2.894,3.156s-2.367,3.157-3.945,3.157c-27.357,0-60.238,29.724-77.599,76.546h1.052c12.889-19.729,31.829-28.146,49.453-28.146,25.516,0,42.876,21.57,42.876,53.924,0,41.035-27.62,86.017-73.653,86.017-33.144,0-48.664-27.62-48.664-64.973ZM633.935,188.604c33.144,0,48.138-52.083,48.138-78.914,0-23.148-9.733-43.929-28.935-43.929-37.879,0-52.346,34.196-52.346,67.866,0,31.303,13.415,54.977,33.144,54.977Z" fill="#ff6938"/>
      <path d="M711.794,131.523c0-54.977,28.936-129.419,84.438-129.419,29.724,0,46.033,29.198,46.033,69.181,0,48.927-24.727,123.369-83.123,123.369-29.987,0-47.349-24.464-47.349-63.131ZM761.247,188.867c43.14,0,60.501-88.384,60.501-125.21,0-31.566-9.47-55.766-27.62-55.766-40.246,0-61.553,86.016-61.553,129.945,0,30.25,9.995,51.031,28.672,51.031Z" fill="#ff6938"/>
      <path d="M895.136,146.779c0-60.5,34.196-92.066,58.659-92.066,19.992,0,25.516,13.152,27.094,23.148l1.053.263,2.367-10.522,17.887-8.68,1.315,1.578-26.305,111.005c-2.63,12.101-.789,15.783,3.157,15.783,4.472,0,9.732-7.103,17.098-21.307l2.894,1.578c-6.576,12.889-13.941,27.094-26.042,27.094-8.943,0-17.098-5.524-14.467-21.833h-1.579c-9.47,16.309-21.832,21.833-33.144,21.833-16.835,0-29.987-19.729-29.987-47.875ZM932.488,185.974c11.574,0,26.042-16.835,32.881-38.142l6.313-26.568c4.998-35.248,4.209-62.342-16.835-62.342-12.89,0-40.772,32.618-40.772,92.855,0,18.15,6.576,34.196,18.413,34.196Z" fill="#ff6938"/>
      <path d="M1039.283,64.972c-3.419,0-10.521,7.365-18.149,20.518l-2.894-1.315c6.312-12.89,18.939-29.461,32.617-29.461,8.681,0,12.363,3.946,8.943,20.781l-15.782,74.442h1.315c21.043-56.818,36.826-95.223,56.292-95.223,11.311,0,14.73,7.892,11.311,22.359l-22.359,94.434c-2.63,12.101-.789,15.783,3.157,15.783,4.472,0,9.732-7.103,17.098-21.307l2.894,1.578c-6.576,12.889-13.941,27.094-26.041,27.094-9.733,0-18.414-6.313-13.679-26.042l21.569-92.329c1.842-7.628.264-10.785-3.419-10.785-12.89,0-42.877,84.438-56.292,123.105l-.526,1.842h-17.361l22.359-105.745c3.42-15.783,2.894-19.729-1.053-19.729Z" fill="#ff6938"/>
      <path d="M1125.562,147.832c0-38.668,23.675-93.119,68.129-93.119,20.781,0,40.772,17.624,40.772,46.033,0,43.139-26.83,93.908-68.129,93.908-21.569,0-40.772-16.31-40.772-46.822ZM1168.438,190.183c33.144,0,47.611-59.186,47.611-84.701,0-31.303-9.207-46.559-23.411-46.559-32.618,0-48.4,53.135-48.4,84.701,0,33.144,8.943,46.56,24.2,46.56Z" fill="#ff6938"/>
      <path d="M1234.724,167.823c0-6.05,3.157-9.996,9.207-9.996,11.837,0,7.365,31.04,37.353,31.04,14.204,0,30.776-7.892,30.776-29.198,0-35.774-57.87-40.246-57.87-71.286,0-24.463,25.778-33.67,43.666-33.67,23.674,0,38.404,11.048,38.404,20.781,0,5.524-3.156,8.417-7.628,8.417-12.89,0-7.103-24.989-31.565-24.989-19.203,0-26.042,12.1-26.042,21.043,0,31.829,56.818,32.618,56.818,73.127,0,26.042-24.464,41.562-51.82,41.562-23.938,0-41.299-14.468-41.299-26.831Z" fill="#ff6938"/>
    </g>
  </g>
</svg>